<mxfile host="app.diagrams.net" agent="Mozilla/5.0 (Windows NT 10.0; Win64; x64) AppleWebKit/537.36 (KHTML, like Gecko) Chrome/130.0.0.0 Safari/537.36 Edg/130.0.0.0" version="24.8.4">
  <diagram name="PÃ¡gina-1" id="S5s8gdEWDQnm_vb1-Cur">
    <mxGraphModel dx="2491" dy="2509" grid="1" gridSize="10" guides="1" tooltips="1" connect="1" arrows="1" fold="1" page="1" pageScale="1" pageWidth="827" pageHeight="1169" math="0" shadow="0">
      <root>
        <mxCell id="0" />
        <mxCell id="1" parent="0" />
        <mxCell id="XqxvmUvMj2cJ1wYKaSK2-6" value="" style="edgeStyle=orthogonalEdgeStyle;rounded=0;orthogonalLoop=1;jettySize=auto;html=1;entryX=0.5;entryY=0;entryDx=0;entryDy=0;" parent="1" source="XqxvmUvMj2cJ1wYKaSK2-3" target="XqxvmUvMj2cJ1wYKaSK2-7" edge="1">
          <mxGeometry relative="1" as="geometry">
            <mxPoint x="539.9999999999998" y="-60" as="targetPoint" />
          </mxGeometry>
        </mxCell>
        <mxCell id="XqxvmUvMj2cJ1wYKaSK2-3" value="INICIO" style="ellipse;whiteSpace=wrap;html=1;" parent="1" vertex="1">
          <mxGeometry x="520" y="-100" width="80" height="30" as="geometry" />
        </mxCell>
        <mxCell id="XqxvmUvMj2cJ1wYKaSK2-9" style="edgeStyle=orthogonalEdgeStyle;rounded=0;orthogonalLoop=1;jettySize=auto;html=1;exitX=1;exitY=0.5;exitDx=0;exitDy=0;" parent="1" source="XqxvmUvMj2cJ1wYKaSK2-7" edge="1">
          <mxGeometry relative="1" as="geometry">
            <mxPoint x="560" y="-60" as="targetPoint" />
            <Array as="points">
              <mxPoint x="650" />
              <mxPoint x="650" y="-60" />
            </Array>
          </mxGeometry>
        </mxCell>
        <mxCell id="XqxvmUvMj2cJ1wYKaSK2-16" value="" style="edgeStyle=orthogonalEdgeStyle;rounded=0;orthogonalLoop=1;jettySize=auto;html=1;" parent="1" target="XqxvmUvMj2cJ1wYKaSK2-12" edge="1">
          <mxGeometry relative="1" as="geometry">
            <mxPoint x="560" y="60" as="sourcePoint" />
            <Array as="points">
              <mxPoint x="560" y="61" />
              <mxPoint x="560" y="90" />
              <mxPoint x="460" y="90" />
            </Array>
          </mxGeometry>
        </mxCell>
        <mxCell id="XqxvmUvMj2cJ1wYKaSK2-7" value="MAC_CTRL[7] == 1" style="rhombus;whiteSpace=wrap;html=1;" parent="1" vertex="1">
          <mxGeometry x="495" y="-40" width="130" height="80" as="geometry" />
        </mxCell>
        <mxCell id="XqxvmUvMj2cJ1wYKaSK2-39" value="" style="edgeStyle=orthogonalEdgeStyle;rounded=0;orthogonalLoop=1;jettySize=auto;html=1;" parent="1" source="XqxvmUvMj2cJ1wYKaSK2-11" target="XqxvmUvMj2cJ1wYKaSK2-31" edge="1">
          <mxGeometry relative="1" as="geometry" />
        </mxCell>
        <mxCell id="XqxvmUvMj2cJ1wYKaSK2-11" value="&lt;br&gt;&lt;span style=&quot;color: rgb(0, 0, 0); font-family: Helvetica; font-size: 12px; font-style: normal; font-variant-ligatures: normal; font-variant-caps: normal; font-weight: 400; letter-spacing: normal; orphans: 2; text-align: center; text-indent: 0px; text-transform: none; widows: 2; word-spacing: 0px; -webkit-text-stroke-width: 0px; white-space: normal; background-color: rgb(251, 251, 251); text-decoration-thickness: initial; text-decoration-style: initial; text-decoration-color: initial; display: inline !important; float: none;&quot;&gt;MAC_CTRL[3:2] == 10&lt;/span&gt;&lt;div&gt;&lt;br&gt;&lt;/div&gt;" style="rounded=0;whiteSpace=wrap;html=1;" parent="1" vertex="1">
          <mxGeometry x="590" y="120" width="140" height="40" as="geometry" />
        </mxCell>
        <mxCell id="XqxvmUvMj2cJ1wYKaSK2-37" value="" style="edgeStyle=orthogonalEdgeStyle;rounded=0;orthogonalLoop=1;jettySize=auto;html=1;" parent="1" source="XqxvmUvMj2cJ1wYKaSK2-12" target="XqxvmUvMj2cJ1wYKaSK2-29" edge="1">
          <mxGeometry relative="1" as="geometry" />
        </mxCell>
        <mxCell id="XqxvmUvMj2cJ1wYKaSK2-12" value="&lt;br&gt;&lt;span style=&quot;color: rgb(0, 0, 0); font-family: Helvetica; font-size: 12px; font-style: normal; font-variant-ligatures: normal; font-variant-caps: normal; font-weight: 400; letter-spacing: normal; orphans: 2; text-align: center; text-indent: 0px; text-transform: none; widows: 2; word-spacing: 0px; -webkit-text-stroke-width: 0px; white-space: normal; background-color: rgb(251, 251, 251); text-decoration-thickness: initial; text-decoration-style: initial; text-decoration-color: initial; display: inline !important; float: none;&quot;&gt;MAC_CTRL[3:2] == 01&lt;/span&gt;&lt;div&gt;&lt;br&gt;&lt;/div&gt;" style="rounded=0;whiteSpace=wrap;html=1;fontStyle=1" parent="1" vertex="1">
          <mxGeometry x="390" y="120" width="140" height="40" as="geometry" />
        </mxCell>
        <mxCell id="XqxvmUvMj2cJ1wYKaSK2-35" value="" style="edgeStyle=orthogonalEdgeStyle;rounded=0;orthogonalLoop=1;jettySize=auto;html=1;" parent="1" source="XqxvmUvMj2cJ1wYKaSK2-13" target="XqxvmUvMj2cJ1wYKaSK2-27" edge="1">
          <mxGeometry relative="1" as="geometry" />
        </mxCell>
        <mxCell id="XqxvmUvMj2cJ1wYKaSK2-13" value="MAC_CTRL[3:2] == 00" style="rounded=0;whiteSpace=wrap;html=1;" parent="1" vertex="1">
          <mxGeometry x="190" y="120" width="140" height="40" as="geometry" />
        </mxCell>
        <mxCell id="XqxvmUvMj2cJ1wYKaSK2-41" value="" style="edgeStyle=orthogonalEdgeStyle;rounded=0;orthogonalLoop=1;jettySize=auto;html=1;" parent="1" source="XqxvmUvMj2cJ1wYKaSK2-14" target="XqxvmUvMj2cJ1wYKaSK2-33" edge="1">
          <mxGeometry relative="1" as="geometry" />
        </mxCell>
        <mxCell id="XqxvmUvMj2cJ1wYKaSK2-14" value="MAC_CTRL[3:2] == 11" style="rounded=0;whiteSpace=wrap;html=1;" parent="1" vertex="1">
          <mxGeometry x="790" y="120" width="140" height="40" as="geometry" />
        </mxCell>
        <mxCell id="XqxvmUvMj2cJ1wYKaSK2-19" value="" style="edgeStyle=orthogonalEdgeStyle;rounded=0;orthogonalLoop=1;jettySize=auto;html=1;entryX=0.5;entryY=0;entryDx=0;entryDy=0;" parent="1" target="XqxvmUvMj2cJ1wYKaSK2-13" edge="1">
          <mxGeometry relative="1" as="geometry">
            <mxPoint x="560" y="60" as="sourcePoint" />
            <mxPoint x="440" y="120" as="targetPoint" />
            <Array as="points">
              <mxPoint x="560" y="90" />
              <mxPoint x="260" y="90" />
            </Array>
          </mxGeometry>
        </mxCell>
        <mxCell id="XqxvmUvMj2cJ1wYKaSK2-20" value="" style="edgeStyle=orthogonalEdgeStyle;rounded=0;orthogonalLoop=1;jettySize=auto;html=1;entryX=0.5;entryY=0;entryDx=0;entryDy=0;" parent="1" target="XqxvmUvMj2cJ1wYKaSK2-11" edge="1">
          <mxGeometry relative="1" as="geometry">
            <mxPoint x="560" y="60" as="sourcePoint" />
            <mxPoint x="540" y="120" as="targetPoint" />
            <Array as="points">
              <mxPoint x="560" y="90" />
              <mxPoint x="660" y="90" />
            </Array>
          </mxGeometry>
        </mxCell>
        <mxCell id="XqxvmUvMj2cJ1wYKaSK2-22" value="" style="edgeStyle=orthogonalEdgeStyle;rounded=0;orthogonalLoop=1;jettySize=auto;html=1;entryX=0.5;entryY=0;entryDx=0;entryDy=0;exitX=0.5;exitY=1;exitDx=0;exitDy=0;" parent="1" source="XqxvmUvMj2cJ1wYKaSK2-7" target="XqxvmUvMj2cJ1wYKaSK2-14" edge="1">
          <mxGeometry relative="1" as="geometry">
            <mxPoint x="560" y="60" as="sourcePoint" />
            <mxPoint x="740" y="110" as="targetPoint" />
            <Array as="points">
              <mxPoint x="560" y="90" />
              <mxPoint x="860" y="90" />
            </Array>
          </mxGeometry>
        </mxCell>
        <mxCell id="XqxvmUvMj2cJ1wYKaSK2-88" style="edgeStyle=orthogonalEdgeStyle;rounded=0;orthogonalLoop=1;jettySize=auto;html=1;entryX=0.5;entryY=0;entryDx=0;entryDy=0;" parent="1" source="XqxvmUvMj2cJ1wYKaSK2-26" target="XqxvmUvMj2cJ1wYKaSK2-77" edge="1">
          <mxGeometry relative="1" as="geometry">
            <Array as="points">
              <mxPoint x="210" y="270" />
              <mxPoint x="460" y="270" />
            </Array>
          </mxGeometry>
        </mxCell>
        <mxCell id="XqxvmUvMj2cJ1wYKaSK2-26" value="&lt;font style=&quot;font-size: 8px;&quot;&gt;MAC_INA[15:0] = A&lt;/font&gt;" style="rounded=0;whiteSpace=wrap;html=1;" parent="1" vertex="1">
          <mxGeometry x="170" y="200" width="80" height="40" as="geometry" />
        </mxCell>
        <mxCell id="XqxvmUvMj2cJ1wYKaSK2-87" style="edgeStyle=orthogonalEdgeStyle;rounded=0;orthogonalLoop=1;jettySize=auto;html=1;entryX=0.5;entryY=0;entryDx=0;entryDy=0;" parent="1" source="XqxvmUvMj2cJ1wYKaSK2-27" target="XqxvmUvMj2cJ1wYKaSK2-77" edge="1">
          <mxGeometry relative="1" as="geometry">
            <Array as="points">
              <mxPoint x="310" y="270" />
              <mxPoint x="460" y="270" />
            </Array>
          </mxGeometry>
        </mxCell>
        <mxCell id="XqxvmUvMj2cJ1wYKaSK2-27" value="&lt;br&gt;&lt;span style=&quot;color: rgb(0, 0, 0); font-family: Helvetica; font-style: normal; font-variant-ligatures: normal; font-variant-caps: normal; font-weight: 400; letter-spacing: normal; orphans: 2; text-align: center; text-indent: 0px; text-transform: none; widows: 2; word-spacing: 0px; -webkit-text-stroke-width: 0px; white-space: normal; background-color: rgb(251, 251, 251); text-decoration-thickness: initial; text-decoration-style: initial; text-decoration-color: initial; float: none; display: inline !important;&quot;&gt;&lt;font style=&quot;font-size: 8px;&quot;&gt;MAC_INA[31:16] = B&lt;/font&gt;&lt;/span&gt;&lt;div&gt;&lt;br&gt;&lt;/div&gt;" style="rounded=0;whiteSpace=wrap;html=1;" parent="1" vertex="1">
          <mxGeometry x="270" y="200" width="80" height="40" as="geometry" />
        </mxCell>
        <mxCell id="XqxvmUvMj2cJ1wYKaSK2-86" value="" style="edgeStyle=orthogonalEdgeStyle;rounded=0;orthogonalLoop=1;jettySize=auto;html=1;" parent="1" source="XqxvmUvMj2cJ1wYKaSK2-28" target="XqxvmUvMj2cJ1wYKaSK2-77" edge="1">
          <mxGeometry relative="1" as="geometry" />
        </mxCell>
        <mxCell id="XqxvmUvMj2cJ1wYKaSK2-28" value="&lt;br&gt;&lt;span style=&quot;color: rgb(0, 0, 0); font-family: Helvetica; font-size: 8px; font-style: normal; font-variant-ligatures: normal; font-variant-caps: normal; font-weight: 400; letter-spacing: normal; orphans: 2; text-align: center; text-indent: 0px; text-transform: none; widows: 2; word-spacing: 0px; -webkit-text-stroke-width: 0px; white-space: normal; background-color: rgb(251, 251, 251); text-decoration-thickness: initial; text-decoration-style: initial; text-decoration-color: initial; display: inline !important; float: none;&quot;&gt;MAC_INA[15:0]&amp;nbsp;&lt;/span&gt;&lt;span style=&quot;font-size: 8px;&quot;&gt;= A&lt;/span&gt;&lt;div&gt;&lt;br&gt;&lt;/div&gt;" style="rounded=0;whiteSpace=wrap;html=1;" parent="1" vertex="1">
          <mxGeometry x="370" y="200" width="83.5" height="40" as="geometry" />
        </mxCell>
        <mxCell id="XqxvmUvMj2cJ1wYKaSK2-85" style="edgeStyle=orthogonalEdgeStyle;rounded=0;orthogonalLoop=1;jettySize=auto;html=1;entryX=0.5;entryY=0;entryDx=0;entryDy=0;" parent="1" source="XqxvmUvMj2cJ1wYKaSK2-29" target="XqxvmUvMj2cJ1wYKaSK2-77" edge="1">
          <mxGeometry relative="1" as="geometry" />
        </mxCell>
        <mxCell id="XqxvmUvMj2cJ1wYKaSK2-29" value="&lt;br&gt;&lt;span style=&quot;color: rgb(0, 0, 0); font-family: Helvetica; font-size: 8px; font-style: normal; font-variant-ligatures: normal; font-variant-caps: normal; font-weight: 400; letter-spacing: normal; orphans: 2; text-align: center; text-indent: 0px; text-transform: none; widows: 2; word-spacing: 0px; -webkit-text-stroke-width: 0px; white-space: normal; background-color: rgb(251, 251, 251); text-decoration-thickness: initial; text-decoration-style: initial; text-decoration-color: initial; display: inline !important; float: none;&quot;&gt;MAC_INB[15:0] = B&lt;/span&gt;&lt;div&gt;&lt;br&gt;&lt;/div&gt;" style="rounded=0;whiteSpace=wrap;html=1;" parent="1" vertex="1">
          <mxGeometry x="470" y="200" width="80" height="40" as="geometry" />
        </mxCell>
        <mxCell id="XqxvmUvMj2cJ1wYKaSK2-84" style="edgeStyle=orthogonalEdgeStyle;rounded=0;orthogonalLoop=1;jettySize=auto;html=1;entryX=0.5;entryY=0;entryDx=0;entryDy=0;" parent="1" source="XqxvmUvMj2cJ1wYKaSK2-30" target="XqxvmUvMj2cJ1wYKaSK2-77" edge="1">
          <mxGeometry relative="1" as="geometry">
            <Array as="points">
              <mxPoint x="610" y="270" />
              <mxPoint x="460" y="270" />
            </Array>
          </mxGeometry>
        </mxCell>
        <mxCell id="XqxvmUvMj2cJ1wYKaSK2-30" value="&lt;br&gt;&lt;br style=&quot;forced-color-adjust: none;&quot;&gt;&lt;span style=&quot;forced-color-adjust: none; color: rgb(0, 0, 0); font-family: Helvetica; font-style: normal; font-variant-ligatures: normal; font-variant-caps: normal; font-weight: 400; letter-spacing: normal; orphans: 2; text-align: center; text-indent: 0px; text-transform: none; widows: 2; word-spacing: 0px; -webkit-text-stroke-width: 0px; white-space: normal; background-color: rgb(251, 251, 251); text-decoration-thickness: initial; text-decoration-style: initial; text-decoration-color: initial; float: none; display: inline !important;&quot;&gt;&lt;font style=&quot;forced-color-adjust: none; font-size: 8px;&quot;&gt;&lt;br&gt;&lt;/font&gt;&lt;/span&gt;&lt;div&gt;&lt;span style=&quot;forced-color-adjust: none; color: rgb(0, 0, 0); font-family: Helvetica; font-style: normal; font-variant-ligatures: normal; font-variant-caps: normal; font-weight: 400; letter-spacing: normal; orphans: 2; text-align: center; text-indent: 0px; text-transform: none; widows: 2; word-spacing: 0px; -webkit-text-stroke-width: 0px; white-space: normal; background-color: rgb(251, 251, 251); text-decoration-thickness: initial; text-decoration-style: initial; text-decoration-color: initial; float: none; display: inline !important;&quot;&gt;&lt;font style=&quot;forced-color-adjust: none; font-size: 8px;&quot;&gt;MAC_INA[31:16] = A&lt;/font&gt;&lt;/span&gt;&lt;div&gt;&lt;div style=&quot;forced-color-adjust: none;&quot;&gt;&lt;br style=&quot;forced-color-adjust: none; color: rgb(0, 0, 0); font-family: Helvetica; font-size: 12px; font-style: normal; font-variant-ligatures: normal; font-variant-caps: normal; font-weight: 400; letter-spacing: normal; orphans: 2; text-align: center; text-indent: 0px; text-transform: none; widows: 2; word-spacing: 0px; -webkit-text-stroke-width: 0px; white-space: normal; background-color: rgb(251, 251, 251); text-decoration-thickness: initial; text-decoration-style: initial; text-decoration-color: initial;&quot;&gt;&lt;br&gt;&lt;br&gt;&lt;/div&gt;&lt;/div&gt;&lt;/div&gt;" style="rounded=0;whiteSpace=wrap;html=1;" parent="1" vertex="1">
          <mxGeometry x="570" y="200" width="80" height="40" as="geometry" />
        </mxCell>
        <mxCell id="XqxvmUvMj2cJ1wYKaSK2-83" style="edgeStyle=orthogonalEdgeStyle;rounded=0;orthogonalLoop=1;jettySize=auto;html=1;entryX=0.5;entryY=0;entryDx=0;entryDy=0;" parent="1" source="XqxvmUvMj2cJ1wYKaSK2-31" target="XqxvmUvMj2cJ1wYKaSK2-77" edge="1">
          <mxGeometry relative="1" as="geometry">
            <Array as="points">
              <mxPoint x="710" y="270" />
              <mxPoint x="460" y="270" />
            </Array>
          </mxGeometry>
        </mxCell>
        <mxCell id="XqxvmUvMj2cJ1wYKaSK2-31" value="&lt;br&gt;&lt;br style=&quot;forced-color-adjust: none;&quot;&gt;&lt;span style=&quot;forced-color-adjust: none; color: rgb(0, 0, 0); font-family: Helvetica; font-style: normal; font-variant-ligatures: normal; font-variant-caps: normal; font-weight: 400; letter-spacing: normal; orphans: 2; text-align: center; text-indent: 0px; text-transform: none; widows: 2; word-spacing: 0px; -webkit-text-stroke-width: 0px; white-space: normal; background-color: rgb(251, 251, 251); text-decoration-thickness: initial; text-decoration-style: initial; text-decoration-color: initial; float: none; display: inline !important;&quot;&gt;&lt;font style=&quot;forced-color-adjust: none; font-size: 8px;&quot;&gt;&lt;br&gt;&lt;/font&gt;&lt;/span&gt;&lt;div&gt;&lt;span style=&quot;forced-color-adjust: none; color: rgb(0, 0, 0); font-family: Helvetica; font-style: normal; font-variant-ligatures: normal; font-variant-caps: normal; font-weight: 400; letter-spacing: normal; orphans: 2; text-align: center; text-indent: 0px; text-transform: none; widows: 2; word-spacing: 0px; -webkit-text-stroke-width: 0px; white-space: normal; background-color: rgb(251, 251, 251); text-decoration-thickness: initial; text-decoration-style: initial; text-decoration-color: initial; float: none; display: inline !important;&quot;&gt;&lt;font style=&quot;forced-color-adjust: none; font-size: 8px;&quot;&gt;MAC_INB[31:16] = B&lt;/font&gt;&lt;/span&gt;&lt;div style=&quot;forced-color-adjust: none;&quot;&gt;&lt;br style=&quot;forced-color-adjust: none; color: rgb(0, 0, 0); font-family: Helvetica; font-size: 12px; font-style: normal; font-variant-ligatures: normal; font-variant-caps: normal; font-weight: 400; letter-spacing: normal; orphans: 2; text-align: center; text-indent: 0px; text-transform: none; widows: 2; word-spacing: 0px; -webkit-text-stroke-width: 0px; white-space: normal; background-color: rgb(251, 251, 251); text-decoration-thickness: initial; text-decoration-style: initial; text-decoration-color: initial;&quot;&gt;&lt;br&gt;&lt;br&gt;&lt;/div&gt;&lt;/div&gt;" style="rounded=0;whiteSpace=wrap;html=1;" parent="1" vertex="1">
          <mxGeometry x="670" y="200" width="80" height="40" as="geometry" />
        </mxCell>
        <mxCell id="XqxvmUvMj2cJ1wYKaSK2-82" value="" style="edgeStyle=orthogonalEdgeStyle;rounded=0;orthogonalLoop=1;jettySize=auto;html=1;" parent="1" source="XqxvmUvMj2cJ1wYKaSK2-32" target="XqxvmUvMj2cJ1wYKaSK2-80" edge="1">
          <mxGeometry relative="1" as="geometry">
            <Array as="points">
              <mxPoint x="810" y="250" />
              <mxPoint x="860" y="250" />
            </Array>
          </mxGeometry>
        </mxCell>
        <mxCell id="XqxvmUvMj2cJ1wYKaSK2-32" value="&lt;span style=&quot;font-size: 8px;&quot;&gt;MAC_INA[15:0] = A&lt;/span&gt;" style="rounded=0;whiteSpace=wrap;html=1;" parent="1" vertex="1">
          <mxGeometry x="770" y="200" width="80" height="40" as="geometry" />
        </mxCell>
        <mxCell id="XqxvmUvMj2cJ1wYKaSK2-81" value="" style="edgeStyle=orthogonalEdgeStyle;rounded=0;orthogonalLoop=1;jettySize=auto;html=1;" parent="1" source="XqxvmUvMj2cJ1wYKaSK2-33" target="XqxvmUvMj2cJ1wYKaSK2-80" edge="1">
          <mxGeometry relative="1" as="geometry">
            <Array as="points">
              <mxPoint x="910" y="250" />
              <mxPoint x="860" y="250" />
            </Array>
          </mxGeometry>
        </mxCell>
        <mxCell id="XqxvmUvMj2cJ1wYKaSK2-33" value="&lt;br&gt;&lt;span style=&quot;font-size: 8px;&quot;&gt;MAC_INB[15:0] = B&lt;/span&gt;&lt;div&gt;&lt;br&gt;&lt;/div&gt;" style="rounded=0;whiteSpace=wrap;html=1;" parent="1" vertex="1">
          <mxGeometry x="870" y="200" width="80" height="40" as="geometry" />
        </mxCell>
        <mxCell id="XqxvmUvMj2cJ1wYKaSK2-34" value="SI" style="text;html=1;align=center;verticalAlign=middle;whiteSpace=wrap;rounded=0;" parent="1" vertex="1">
          <mxGeometry x="520" y="30" width="60" height="30" as="geometry" />
        </mxCell>
        <mxCell id="XqxvmUvMj2cJ1wYKaSK2-36" value="" style="edgeStyle=orthogonalEdgeStyle;rounded=0;orthogonalLoop=1;jettySize=auto;html=1;entryX=0.5;entryY=0;entryDx=0;entryDy=0;" parent="1" target="XqxvmUvMj2cJ1wYKaSK2-26" edge="1">
          <mxGeometry relative="1" as="geometry">
            <mxPoint x="260" y="180" as="sourcePoint" />
            <mxPoint x="320" y="210" as="targetPoint" />
          </mxGeometry>
        </mxCell>
        <mxCell id="XqxvmUvMj2cJ1wYKaSK2-38" value="" style="edgeStyle=orthogonalEdgeStyle;rounded=0;orthogonalLoop=1;jettySize=auto;html=1;entryX=0.5;entryY=0;entryDx=0;entryDy=0;" parent="1" target="XqxvmUvMj2cJ1wYKaSK2-28" edge="1">
          <mxGeometry relative="1" as="geometry">
            <mxPoint x="460" y="180" as="sourcePoint" />
            <mxPoint x="400" y="200" as="targetPoint" />
          </mxGeometry>
        </mxCell>
        <mxCell id="XqxvmUvMj2cJ1wYKaSK2-40" value="" style="edgeStyle=orthogonalEdgeStyle;rounded=0;orthogonalLoop=1;jettySize=auto;html=1;entryX=0.5;entryY=0;entryDx=0;entryDy=0;" parent="1" target="XqxvmUvMj2cJ1wYKaSK2-30" edge="1">
          <mxGeometry relative="1" as="geometry">
            <mxPoint x="660" y="180" as="sourcePoint" />
            <mxPoint x="579.48" y="180" as="targetPoint" />
          </mxGeometry>
        </mxCell>
        <mxCell id="XqxvmUvMj2cJ1wYKaSK2-42" value="" style="edgeStyle=orthogonalEdgeStyle;rounded=0;orthogonalLoop=1;jettySize=auto;html=1;entryX=0.5;entryY=0;entryDx=0;entryDy=0;" parent="1" target="XqxvmUvMj2cJ1wYKaSK2-32" edge="1">
          <mxGeometry relative="1" as="geometry">
            <mxPoint x="860" y="180" as="sourcePoint" />
            <mxPoint x="800" y="180" as="targetPoint" />
          </mxGeometry>
        </mxCell>
        <mxCell id="XqxvmUvMj2cJ1wYKaSK2-49" value="" style="edgeStyle=orthogonalEdgeStyle;rounded=0;orthogonalLoop=1;jettySize=auto;html=1;" parent="1" source="XqxvmUvMj2cJ1wYKaSK2-44" target="XqxvmUvMj2cJ1wYKaSK2-45" edge="1">
          <mxGeometry relative="1" as="geometry" />
        </mxCell>
        <mxCell id="XqxvmUvMj2cJ1wYKaSK2-44" value="RESULT = A*B" style="rounded=0;whiteSpace=wrap;html=1;" parent="1" vertex="1">
          <mxGeometry x="414" y="400" width="90" height="40" as="geometry" />
        </mxCell>
        <mxCell id="Qrr7-VOG2FT9avnJHbCs-41" style="edgeStyle=orthogonalEdgeStyle;rounded=0;orthogonalLoop=1;jettySize=auto;html=1;entryX=0.5;entryY=0;entryDx=0;entryDy=0;" edge="1" parent="1" source="XqxvmUvMj2cJ1wYKaSK2-45" target="Qrr7-VOG2FT9avnJHbCs-38">
          <mxGeometry relative="1" as="geometry">
            <Array as="points">
              <mxPoint x="460" y="660" />
              <mxPoint x="565" y="660" />
            </Array>
          </mxGeometry>
        </mxCell>
        <mxCell id="XqxvmUvMj2cJ1wYKaSK2-45" value="&lt;font style=&quot;font-size: 10px;&quot;&gt;MAC_ACC = MAC_ACC + RESULT&lt;/font&gt;" style="rounded=0;whiteSpace=wrap;html=1;" parent="1" vertex="1">
          <mxGeometry x="375" y="500" width="170" height="40" as="geometry" />
        </mxCell>
        <mxCell id="XqxvmUvMj2cJ1wYKaSK2-60" value="" style="edgeStyle=orthogonalEdgeStyle;rounded=0;orthogonalLoop=1;jettySize=auto;html=1;" parent="1" source="XqxvmUvMj2cJ1wYKaSK2-61" target="XqxvmUvMj2cJ1wYKaSK2-62" edge="1">
          <mxGeometry relative="1" as="geometry" />
        </mxCell>
        <mxCell id="XqxvmUvMj2cJ1wYKaSK2-61" value="RESULT = A*B" style="rounded=0;whiteSpace=wrap;html=1;" parent="1" vertex="1">
          <mxGeometry x="815" y="350" width="90" height="30" as="geometry" />
        </mxCell>
        <mxCell id="XqxvmUvMj2cJ1wYKaSK2-66" value="" style="edgeStyle=orthogonalEdgeStyle;rounded=0;orthogonalLoop=1;jettySize=auto;html=1;" parent="1" source="XqxvmUvMj2cJ1wYKaSK2-62" target="XqxvmUvMj2cJ1wYKaSK2-64" edge="1">
          <mxGeometry relative="1" as="geometry" />
        </mxCell>
        <mxCell id="XqxvmUvMj2cJ1wYKaSK2-62" value="&lt;font style=&quot;font-size: 10px;&quot;&gt;MAC_ACC = MAC_ACC + RESULT&lt;/font&gt;" style="rounded=0;whiteSpace=wrap;html=1;" parent="1" vertex="1">
          <mxGeometry x="775" y="410" width="170" height="30" as="geometry" />
        </mxCell>
        <mxCell id="XqxvmUvMj2cJ1wYKaSK2-63" value="&lt;span style=&quot;font-size: 8px;&quot;&gt;MAC_INA[31:16] = A&lt;/span&gt;" style="rounded=0;whiteSpace=wrap;html=1;" parent="1" vertex="1">
          <mxGeometry x="770" y="480" width="80" height="40" as="geometry" />
        </mxCell>
        <mxCell id="XqxvmUvMj2cJ1wYKaSK2-71" value="" style="edgeStyle=orthogonalEdgeStyle;rounded=0;orthogonalLoop=1;jettySize=auto;html=1;entryX=0.5;entryY=0;entryDx=0;entryDy=0;exitX=0.5;exitY=1;exitDx=0;exitDy=0;" parent="1" source="XqxvmUvMj2cJ1wYKaSK2-64" target="XqxvmUvMj2cJ1wYKaSK2-69" edge="1">
          <mxGeometry relative="1" as="geometry">
            <Array as="points">
              <mxPoint x="910" y="530" />
              <mxPoint x="860" y="530" />
            </Array>
          </mxGeometry>
        </mxCell>
        <mxCell id="XqxvmUvMj2cJ1wYKaSK2-64" value="&lt;br&gt;&lt;span style=&quot;font-size: 8px;&quot;&gt;MAC_INB[31:16] = B&lt;/span&gt;&lt;div&gt;&lt;br&gt;&lt;/div&gt;" style="rounded=0;whiteSpace=wrap;html=1;" parent="1" vertex="1">
          <mxGeometry x="870" y="480" width="80" height="40" as="geometry" />
        </mxCell>
        <mxCell id="XqxvmUvMj2cJ1wYKaSK2-65" value="" style="edgeStyle=orthogonalEdgeStyle;rounded=0;orthogonalLoop=1;jettySize=auto;html=1;entryX=0.5;entryY=0;entryDx=0;entryDy=0;" parent="1" target="XqxvmUvMj2cJ1wYKaSK2-63" edge="1">
          <mxGeometry relative="1" as="geometry">
            <mxPoint x="860" y="460" as="sourcePoint" />
            <mxPoint x="800" y="460" as="targetPoint" />
          </mxGeometry>
        </mxCell>
        <mxCell id="XqxvmUvMj2cJ1wYKaSK2-68" value="" style="edgeStyle=orthogonalEdgeStyle;rounded=0;orthogonalLoop=1;jettySize=auto;html=1;" parent="1" source="XqxvmUvMj2cJ1wYKaSK2-69" target="XqxvmUvMj2cJ1wYKaSK2-70" edge="1">
          <mxGeometry relative="1" as="geometry" />
        </mxCell>
        <mxCell id="XqxvmUvMj2cJ1wYKaSK2-69" value="RESULT = A*B" style="rounded=0;whiteSpace=wrap;html=1;" parent="1" vertex="1">
          <mxGeometry x="815" y="550" width="90" height="30" as="geometry" />
        </mxCell>
        <mxCell id="Qrr7-VOG2FT9avnJHbCs-40" style="edgeStyle=orthogonalEdgeStyle;rounded=0;orthogonalLoop=1;jettySize=auto;html=1;entryX=0.5;entryY=0;entryDx=0;entryDy=0;exitX=0.5;exitY=1;exitDx=0;exitDy=0;" edge="1" parent="1" source="XqxvmUvMj2cJ1wYKaSK2-70" target="Qrr7-VOG2FT9avnJHbCs-38">
          <mxGeometry relative="1" as="geometry">
            <Array as="points">
              <mxPoint x="860" y="660" />
              <mxPoint x="565" y="660" />
            </Array>
          </mxGeometry>
        </mxCell>
        <mxCell id="XqxvmUvMj2cJ1wYKaSK2-70" value="&lt;font style=&quot;font-size: 10px;&quot;&gt;MAC_ACC = MAC_ACC + RESULT&lt;/font&gt;" style="rounded=0;whiteSpace=wrap;html=1;" parent="1" vertex="1">
          <mxGeometry x="775" y="600" width="170" height="30" as="geometry" />
        </mxCell>
        <mxCell id="XqxvmUvMj2cJ1wYKaSK2-72" value="" style="edgeStyle=orthogonalEdgeStyle;rounded=0;orthogonalLoop=1;jettySize=auto;html=1;entryX=0.5;entryY=0;entryDx=0;entryDy=0;exitX=0.5;exitY=1;exitDx=0;exitDy=0;" parent="1" source="XqxvmUvMj2cJ1wYKaSK2-63" target="XqxvmUvMj2cJ1wYKaSK2-69" edge="1">
          <mxGeometry relative="1" as="geometry">
            <mxPoint x="920" y="530" as="sourcePoint" />
            <mxPoint x="870" y="550" as="targetPoint" />
            <Array as="points">
              <mxPoint x="810" y="530" />
              <mxPoint x="860" y="530" />
            </Array>
          </mxGeometry>
        </mxCell>
        <mxCell id="XqxvmUvMj2cJ1wYKaSK2-89" value="" style="edgeStyle=orthogonalEdgeStyle;rounded=0;orthogonalLoop=1;jettySize=auto;html=1;" parent="1" source="XqxvmUvMj2cJ1wYKaSK2-77" target="XqxvmUvMj2cJ1wYKaSK2-44" edge="1">
          <mxGeometry relative="1" as="geometry" />
        </mxCell>
        <mxCell id="XqxvmUvMj2cJ1wYKaSK2-77" value="&lt;br&gt;&lt;span style=&quot;color: rgb(0, 0, 0); font-family: Helvetica; font-size: 12px; font-style: normal; font-variant-ligatures: normal; font-variant-caps: normal; font-weight: 400; letter-spacing: normal; orphans: 2; text-align: center; text-indent: 0px; text-transform: none; widows: 2; word-spacing: 0px; -webkit-text-stroke-width: 0px; white-space: normal; background-color: rgb(251, 251, 251); text-decoration-thickness: initial; text-decoration-style: initial; text-decoration-color: initial; display: inline !important; float: none;&quot;&gt;MAC_CTRL[1] == 1&lt;/span&gt;&lt;div&gt;&lt;br/&gt;&lt;/div&gt;" style="rhombus;whiteSpace=wrap;html=1;" parent="1" vertex="1">
          <mxGeometry x="395" y="300" width="130" height="60" as="geometry" />
        </mxCell>
        <mxCell id="XqxvmUvMj2cJ1wYKaSK2-104" value="" style="edgeStyle=orthogonalEdgeStyle;rounded=0;orthogonalLoop=1;jettySize=auto;html=1;entryX=0.5;entryY=0;entryDx=0;entryDy=0;" parent="1" source="XqxvmUvMj2cJ1wYKaSK2-80" target="XqxvmUvMj2cJ1wYKaSK2-61" edge="1">
          <mxGeometry relative="1" as="geometry" />
        </mxCell>
        <mxCell id="XqxvmUvMj2cJ1wYKaSK2-80" value="&lt;br&gt;&lt;span style=&quot;color: rgb(0, 0, 0); font-family: Helvetica; font-size: 12px; font-style: normal; font-variant-ligatures: normal; font-variant-caps: normal; font-weight: 400; letter-spacing: normal; orphans: 2; text-align: center; text-indent: 0px; text-transform: none; widows: 2; word-spacing: 0px; -webkit-text-stroke-width: 0px; white-space: normal; background-color: rgb(251, 251, 251); text-decoration-thickness: initial; text-decoration-style: initial; text-decoration-color: initial; display: inline !important; float: none;&quot;&gt;MAC_CTRL[1] == 1&lt;/span&gt;&lt;div&gt;&lt;br/&gt;&lt;/div&gt;" style="rhombus;whiteSpace=wrap;html=1;" parent="1" vertex="1">
          <mxGeometry x="795" y="260" width="130" height="60" as="geometry" />
        </mxCell>
        <mxCell id="XqxvmUvMj2cJ1wYKaSK2-90" value="SI" style="text;html=1;align=center;verticalAlign=middle;whiteSpace=wrap;rounded=0;" parent="1" vertex="1">
          <mxGeometry x="414" y="350" width="60" height="30" as="geometry" />
        </mxCell>
        <mxCell id="XqxvmUvMj2cJ1wYKaSK2-91" value="SI" style="text;html=1;align=center;verticalAlign=middle;whiteSpace=wrap;rounded=0;" parent="1" vertex="1">
          <mxGeometry x="820" y="315" width="60" height="30" as="geometry" />
        </mxCell>
        <mxCell id="XqxvmUvMj2cJ1wYKaSK2-103" value="NO" style="text;html=1;align=center;verticalAlign=middle;whiteSpace=wrap;rounded=0;" parent="1" vertex="1">
          <mxGeometry x="610" width="60" height="30" as="geometry" />
        </mxCell>
        <mxCell id="wpN2EaYJEyrVSDHBwKyS-9" value="" style="edgeStyle=orthogonalEdgeStyle;rounded=0;orthogonalLoop=1;jettySize=auto;html=1;" parent="1" source="XqxvmUvMj2cJ1wYKaSK2-105" target="wpN2EaYJEyrVSDHBwKyS-5" edge="1">
          <mxGeometry relative="1" as="geometry">
            <Array as="points">
              <mxPoint x="565" y="820" />
              <mxPoint x="615" y="820" />
            </Array>
          </mxGeometry>
        </mxCell>
        <mxCell id="XqxvmUvMj2cJ1wYKaSK2-105" value="&lt;font style=&quot;font-size: 12px;&quot;&gt;SHIFT&lt;/font&gt;&lt;div&gt;&lt;font style=&quot;font-size: 12px;&quot;&gt;Desplaza el MAC_ACC para MAC_OUT&lt;/font&gt;&lt;/div&gt;" style="rounded=0;whiteSpace=wrap;html=1;" parent="1" vertex="1">
          <mxGeometry x="455" y="750" width="220" height="40" as="geometry" />
        </mxCell>
        <mxCell id="XqxvmUvMj2cJ1wYKaSK2-118" value="" style="edgeStyle=orthogonalEdgeStyle;rounded=0;orthogonalLoop=1;jettySize=auto;html=1;" parent="1" source="XqxvmUvMj2cJ1wYKaSK2-114" target="XqxvmUvMj2cJ1wYKaSK2-115" edge="1">
          <mxGeometry relative="1" as="geometry" />
        </mxCell>
        <mxCell id="XqxvmUvMj2cJ1wYKaSK2-120" style="edgeStyle=orthogonalEdgeStyle;rounded=0;orthogonalLoop=1;jettySize=auto;html=1;" parent="1" source="XqxvmUvMj2cJ1wYKaSK2-114" edge="1">
          <mxGeometry relative="1" as="geometry">
            <mxPoint x="563.5" y="1240" as="targetPoint" />
            <Array as="points">
              <mxPoint x="693.5" y="1090" />
              <mxPoint x="693.5" y="1240" />
            </Array>
          </mxGeometry>
        </mxCell>
        <mxCell id="XqxvmUvMj2cJ1wYKaSK2-114" value="MAC_CTRL[0] == 1" style="rhombus;whiteSpace=wrap;html=1;" parent="1" vertex="1">
          <mxGeometry x="498.5" y="1050" width="130" height="80" as="geometry" />
        </mxCell>
        <mxCell id="XqxvmUvMj2cJ1wYKaSK2-119" value="" style="edgeStyle=orthogonalEdgeStyle;rounded=0;orthogonalLoop=1;jettySize=auto;html=1;" parent="1" source="XqxvmUvMj2cJ1wYKaSK2-115" target="XqxvmUvMj2cJ1wYKaSK2-116" edge="1">
          <mxGeometry relative="1" as="geometry" />
        </mxCell>
        <mxCell id="XqxvmUvMj2cJ1wYKaSK2-115" value="Se genera una interrupcion cuando el calculo MAC se completa, Permitiendo que el usuario sea notificado" style="rounded=0;whiteSpace=wrap;html=1;" parent="1" vertex="1">
          <mxGeometry x="458.5" y="1160" width="210" height="60" as="geometry" />
        </mxCell>
        <mxCell id="XqxvmUvMj2cJ1wYKaSK2-116" value="FIN" style="ellipse;whiteSpace=wrap;html=1;" parent="1" vertex="1">
          <mxGeometry x="523.5" y="1269" width="80" height="30" as="geometry" />
        </mxCell>
        <mxCell id="XqxvmUvMj2cJ1wYKaSK2-121" value="SI" style="text;html=1;align=center;verticalAlign=middle;whiteSpace=wrap;rounded=0;" parent="1" vertex="1">
          <mxGeometry x="513.5" y="1120" width="60" height="30" as="geometry" />
        </mxCell>
        <mxCell id="XqxvmUvMj2cJ1wYKaSK2-122" value="NO" style="text;html=1;align=center;verticalAlign=middle;whiteSpace=wrap;rounded=0;" parent="1" vertex="1">
          <mxGeometry x="613.5" y="1060" width="60" height="30" as="geometry" />
        </mxCell>
        <mxCell id="Qrr7-VOG2FT9avnJHbCs-10" value="" style="edgeStyle=orthogonalEdgeStyle;rounded=0;orthogonalLoop=1;jettySize=auto;html=1;" edge="1" parent="1" source="wpN2EaYJEyrVSDHBwKyS-1" target="Qrr7-VOG2FT9avnJHbCs-1">
          <mxGeometry relative="1" as="geometry" />
        </mxCell>
        <mxCell id="wpN2EaYJEyrVSDHBwKyS-1" value="&lt;font style=&quot;font-size: 8px;&quot;&gt;MAC_CTRL[6:4] == 000&lt;/font&gt;" style="rounded=0;whiteSpace=wrap;html=1;" parent="1" vertex="1">
          <mxGeometry x="170" y="860" width="90" height="40" as="geometry" />
        </mxCell>
        <mxCell id="Qrr7-VOG2FT9avnJHbCs-11" value="" style="edgeStyle=orthogonalEdgeStyle;rounded=0;orthogonalLoop=1;jettySize=auto;html=1;" edge="1" parent="1" source="wpN2EaYJEyrVSDHBwKyS-2" target="Qrr7-VOG2FT9avnJHbCs-3">
          <mxGeometry relative="1" as="geometry" />
        </mxCell>
        <mxCell id="wpN2EaYJEyrVSDHBwKyS-2" value="&lt;font style=&quot;font-size: 8px;&quot;&gt;MAC_CTRL[6:4] == 001&lt;/font&gt;" style="rounded=0;whiteSpace=wrap;html=1;" parent="1" vertex="1">
          <mxGeometry x="270" y="860" width="90" height="40" as="geometry" />
        </mxCell>
        <mxCell id="Qrr7-VOG2FT9avnJHbCs-13" value="" style="edgeStyle=orthogonalEdgeStyle;rounded=0;orthogonalLoop=1;jettySize=auto;html=1;" edge="1" parent="1" source="wpN2EaYJEyrVSDHBwKyS-3" target="Qrr7-VOG2FT9avnJHbCs-5">
          <mxGeometry relative="1" as="geometry" />
        </mxCell>
        <mxCell id="wpN2EaYJEyrVSDHBwKyS-3" value="&lt;font style=&quot;font-size: 8px;&quot;&gt;MAC_CTRL[6:4] == 011&lt;/font&gt;" style="rounded=0;whiteSpace=wrap;html=1;" parent="1" vertex="1">
          <mxGeometry x="470" y="860" width="90" height="40" as="geometry" />
        </mxCell>
        <mxCell id="Qrr7-VOG2FT9avnJHbCs-12" value="" style="edgeStyle=orthogonalEdgeStyle;rounded=0;orthogonalLoop=1;jettySize=auto;html=1;" edge="1" parent="1" source="wpN2EaYJEyrVSDHBwKyS-4" target="Qrr7-VOG2FT9avnJHbCs-4">
          <mxGeometry relative="1" as="geometry" />
        </mxCell>
        <mxCell id="wpN2EaYJEyrVSDHBwKyS-4" value="&lt;font style=&quot;font-size: 8px;&quot;&gt;MAC_CTRL[6:4] == 010&lt;/font&gt;" style="rounded=0;whiteSpace=wrap;html=1;" parent="1" vertex="1">
          <mxGeometry x="371.75" y="860" width="90" height="40" as="geometry" />
        </mxCell>
        <mxCell id="Qrr7-VOG2FT9avnJHbCs-14" value="" style="edgeStyle=orthogonalEdgeStyle;rounded=0;orthogonalLoop=1;jettySize=auto;html=1;" edge="1" parent="1" source="wpN2EaYJEyrVSDHBwKyS-5" target="Qrr7-VOG2FT9avnJHbCs-6">
          <mxGeometry relative="1" as="geometry" />
        </mxCell>
        <mxCell id="wpN2EaYJEyrVSDHBwKyS-5" value="&lt;font style=&quot;font-size: 8px;&quot;&gt;MAC_CTRL[6:4] == 100&lt;/font&gt;" style="rounded=0;whiteSpace=wrap;html=1;" parent="1" vertex="1">
          <mxGeometry x="570" y="860" width="90" height="40" as="geometry" />
        </mxCell>
        <mxCell id="Qrr7-VOG2FT9avnJHbCs-15" value="" style="edgeStyle=orthogonalEdgeStyle;rounded=0;orthogonalLoop=1;jettySize=auto;html=1;" edge="1" parent="1" source="wpN2EaYJEyrVSDHBwKyS-6" target="Qrr7-VOG2FT9avnJHbCs-7">
          <mxGeometry relative="1" as="geometry" />
        </mxCell>
        <mxCell id="wpN2EaYJEyrVSDHBwKyS-6" value="&lt;font style=&quot;font-size: 8px;&quot;&gt;MAC_CTRL[6:4] == 101&lt;/font&gt;" style="rounded=0;whiteSpace=wrap;html=1;" parent="1" vertex="1">
          <mxGeometry x="670" y="860" width="90" height="40" as="geometry" />
        </mxCell>
        <mxCell id="Qrr7-VOG2FT9avnJHbCs-16" value="" style="edgeStyle=orthogonalEdgeStyle;rounded=0;orthogonalLoop=1;jettySize=auto;html=1;" edge="1" parent="1" source="wpN2EaYJEyrVSDHBwKyS-7" target="Qrr7-VOG2FT9avnJHbCs-8">
          <mxGeometry relative="1" as="geometry" />
        </mxCell>
        <mxCell id="wpN2EaYJEyrVSDHBwKyS-7" value="&lt;font style=&quot;font-size: 8px;&quot;&gt;MAC_CTRL[6:4] == 110&lt;/font&gt;" style="rounded=0;whiteSpace=wrap;html=1;" parent="1" vertex="1">
          <mxGeometry x="770" y="860" width="90" height="40" as="geometry" />
        </mxCell>
        <mxCell id="Qrr7-VOG2FT9avnJHbCs-17" value="" style="edgeStyle=orthogonalEdgeStyle;rounded=0;orthogonalLoop=1;jettySize=auto;html=1;" edge="1" parent="1" source="wpN2EaYJEyrVSDHBwKyS-8" target="Qrr7-VOG2FT9avnJHbCs-2">
          <mxGeometry relative="1" as="geometry" />
        </mxCell>
        <mxCell id="wpN2EaYJEyrVSDHBwKyS-8" value="&lt;font style=&quot;font-size: 8px;&quot;&gt;MAC_CTRL[6:4] == 111&lt;/font&gt;" style="rounded=0;whiteSpace=wrap;html=1;" parent="1" vertex="1">
          <mxGeometry x="870" y="860" width="90" height="40" as="geometry" />
        </mxCell>
        <mxCell id="wpN2EaYJEyrVSDHBwKyS-10" value="" style="edgeStyle=orthogonalEdgeStyle;rounded=0;orthogonalLoop=1;jettySize=auto;html=1;entryX=0.5;entryY=0;entryDx=0;entryDy=0;" parent="1" target="wpN2EaYJEyrVSDHBwKyS-1" edge="1">
          <mxGeometry relative="1" as="geometry">
            <mxPoint x="565" y="820" as="sourcePoint" />
            <mxPoint x="235" y="850" as="targetPoint" />
          </mxGeometry>
        </mxCell>
        <mxCell id="wpN2EaYJEyrVSDHBwKyS-11" value="" style="edgeStyle=orthogonalEdgeStyle;rounded=0;orthogonalLoop=1;jettySize=auto;html=1;entryX=0.5;entryY=0;entryDx=0;entryDy=0;" parent="1" target="wpN2EaYJEyrVSDHBwKyS-2" edge="1">
          <mxGeometry relative="1" as="geometry">
            <mxPoint x="315" y="820" as="sourcePoint" />
            <mxPoint x="359.44" y="805" as="targetPoint" />
          </mxGeometry>
        </mxCell>
        <mxCell id="wpN2EaYJEyrVSDHBwKyS-12" value="" style="edgeStyle=orthogonalEdgeStyle;rounded=0;orthogonalLoop=1;jettySize=auto;html=1;entryX=0.5;entryY=0;entryDx=0;entryDy=0;" parent="1" target="wpN2EaYJEyrVSDHBwKyS-3" edge="1">
          <mxGeometry relative="1" as="geometry">
            <mxPoint x="515" y="820" as="sourcePoint" />
            <mxPoint x="399.44" y="830" as="targetPoint" />
          </mxGeometry>
        </mxCell>
        <mxCell id="wpN2EaYJEyrVSDHBwKyS-13" value="" style="edgeStyle=orthogonalEdgeStyle;rounded=0;orthogonalLoop=1;jettySize=auto;html=1;entryX=0.5;entryY=0;entryDx=0;entryDy=0;" parent="1" target="wpN2EaYJEyrVSDHBwKyS-4" edge="1">
          <mxGeometry relative="1" as="geometry">
            <mxPoint x="417" y="820" as="sourcePoint" />
            <mxPoint x="414.44" y="840" as="targetPoint" />
          </mxGeometry>
        </mxCell>
        <mxCell id="wpN2EaYJEyrVSDHBwKyS-14" value="" style="edgeStyle=orthogonalEdgeStyle;rounded=0;orthogonalLoop=1;jettySize=auto;html=1;entryX=0.5;entryY=0;entryDx=0;entryDy=0;" parent="1" target="wpN2EaYJEyrVSDHBwKyS-8" edge="1">
          <mxGeometry relative="1" as="geometry">
            <mxPoint x="615" y="820" as="sourcePoint" />
            <mxPoint x="754.44" y="850" as="targetPoint" />
          </mxGeometry>
        </mxCell>
        <mxCell id="wpN2EaYJEyrVSDHBwKyS-15" value="" style="edgeStyle=orthogonalEdgeStyle;rounded=0;orthogonalLoop=1;jettySize=auto;html=1;entryX=0.5;entryY=0;entryDx=0;entryDy=0;" parent="1" target="wpN2EaYJEyrVSDHBwKyS-6" edge="1">
          <mxGeometry relative="1" as="geometry">
            <mxPoint x="715" y="820" as="sourcePoint" />
            <mxPoint x="734.44" y="840" as="targetPoint" />
          </mxGeometry>
        </mxCell>
        <mxCell id="wpN2EaYJEyrVSDHBwKyS-16" value="" style="edgeStyle=orthogonalEdgeStyle;rounded=0;orthogonalLoop=1;jettySize=auto;html=1;entryX=0.5;entryY=0;entryDx=0;entryDy=0;" parent="1" target="wpN2EaYJEyrVSDHBwKyS-7" edge="1">
          <mxGeometry relative="1" as="geometry">
            <mxPoint x="815" y="820" as="sourcePoint" />
            <mxPoint x="794.44" y="820" as="targetPoint" />
          </mxGeometry>
        </mxCell>
        <mxCell id="Qrr7-VOG2FT9avnJHbCs-1" value="&lt;font style=&quot;font-size: 11px;&quot;&gt;MAC_OUT&lt;/font&gt;&lt;div&gt;&lt;font style=&quot;&quot;&gt;&lt;font size=&quot;3&quot;&gt;=&lt;/font&gt;&lt;br&gt;&lt;/font&gt;&lt;div&gt;&lt;div&gt;&lt;font style=&quot;&quot;&gt;&lt;font style=&quot;font-size: 11px;&quot;&gt;MAC_ACC[31:16]&lt;/font&gt;&amp;nbsp;&lt;/font&gt;&lt;/div&gt;&lt;/div&gt;&lt;/div&gt;" style="rounded=0;whiteSpace=wrap;html=1;" vertex="1" parent="1">
          <mxGeometry x="170" y="940" width="90" height="50" as="geometry" />
        </mxCell>
        <mxCell id="Qrr7-VOG2FT9avnJHbCs-2" value="&lt;font style=&quot;font-size: 11px;&quot;&gt;MAC_OUT&lt;/font&gt;&lt;div&gt;&lt;font style=&quot;&quot;&gt;&lt;font size=&quot;3&quot;&gt;=&lt;/font&gt;&lt;br&gt;&lt;/font&gt;&lt;div&gt;&lt;div&gt;&lt;font style=&quot;&quot;&gt;&lt;font style=&quot;font-size: 11px;&quot;&gt;MAC_ACC[24:9]&lt;/font&gt;&amp;nbsp;&lt;/font&gt;&lt;/div&gt;&lt;/div&gt;&lt;/div&gt;" style="rounded=0;whiteSpace=wrap;html=1;" vertex="1" parent="1">
          <mxGeometry x="870" y="940" width="90" height="50" as="geometry" />
        </mxCell>
        <mxCell id="Qrr7-VOG2FT9avnJHbCs-3" value="&lt;font style=&quot;font-size: 11px;&quot;&gt;MAC_OUT&lt;/font&gt;&lt;div&gt;&lt;font style=&quot;&quot;&gt;&lt;font size=&quot;3&quot;&gt;=&lt;/font&gt;&lt;br&gt;&lt;/font&gt;&lt;div&gt;&lt;div&gt;&lt;font style=&quot;&quot;&gt;&lt;font style=&quot;font-size: 11px;&quot;&gt;MAC_ACC[30:15]&lt;/font&gt;&amp;nbsp;&lt;/font&gt;&lt;/div&gt;&lt;/div&gt;&lt;/div&gt;" style="rounded=0;whiteSpace=wrap;html=1;" vertex="1" parent="1">
          <mxGeometry x="270" y="940" width="90" height="50" as="geometry" />
        </mxCell>
        <mxCell id="Qrr7-VOG2FT9avnJHbCs-4" value="&lt;font style=&quot;font-size: 11px;&quot;&gt;MAC_OUT&lt;/font&gt;&lt;div&gt;&lt;font style=&quot;&quot;&gt;&lt;font size=&quot;3&quot;&gt;=&lt;/font&gt;&lt;br&gt;&lt;/font&gt;&lt;div&gt;&lt;div&gt;&lt;font style=&quot;&quot;&gt;&lt;font style=&quot;font-size: 11px;&quot;&gt;MAC_ACC[29:14]&lt;/font&gt;&amp;nbsp;&lt;/font&gt;&lt;/div&gt;&lt;/div&gt;&lt;/div&gt;" style="rounded=0;whiteSpace=wrap;html=1;" vertex="1" parent="1">
          <mxGeometry x="371.75" y="940" width="90" height="50" as="geometry" />
        </mxCell>
        <mxCell id="Qrr7-VOG2FT9avnJHbCs-19" value="" style="edgeStyle=orthogonalEdgeStyle;rounded=0;orthogonalLoop=1;jettySize=auto;html=1;" edge="1" parent="1" source="Qrr7-VOG2FT9avnJHbCs-5" target="XqxvmUvMj2cJ1wYKaSK2-114">
          <mxGeometry relative="1" as="geometry">
            <Array as="points">
              <mxPoint x="515" y="1020" />
              <mxPoint x="563" y="1020" />
            </Array>
          </mxGeometry>
        </mxCell>
        <mxCell id="Qrr7-VOG2FT9avnJHbCs-5" value="&lt;font style=&quot;font-size: 11px;&quot;&gt;MAC_OUT&lt;/font&gt;&lt;div&gt;&lt;font style=&quot;&quot;&gt;&lt;font size=&quot;3&quot;&gt;=&lt;/font&gt;&lt;br&gt;&lt;/font&gt;&lt;div&gt;&lt;div&gt;&lt;font style=&quot;&quot;&gt;&lt;font style=&quot;font-size: 11px;&quot;&gt;MAC_ACC[28:13]&lt;/font&gt;&amp;nbsp;&lt;/font&gt;&lt;/div&gt;&lt;/div&gt;&lt;/div&gt;" style="rounded=0;whiteSpace=wrap;html=1;" vertex="1" parent="1">
          <mxGeometry x="470" y="940" width="90" height="50" as="geometry" />
        </mxCell>
        <mxCell id="Qrr7-VOG2FT9avnJHbCs-18" value="" style="edgeStyle=orthogonalEdgeStyle;rounded=0;orthogonalLoop=1;jettySize=auto;html=1;entryX=0.5;entryY=0;entryDx=0;entryDy=0;" edge="1" parent="1" source="Qrr7-VOG2FT9avnJHbCs-6" target="XqxvmUvMj2cJ1wYKaSK2-114">
          <mxGeometry relative="1" as="geometry">
            <Array as="points">
              <mxPoint x="615" y="1020" />
              <mxPoint x="563" y="1020" />
            </Array>
          </mxGeometry>
        </mxCell>
        <mxCell id="Qrr7-VOG2FT9avnJHbCs-6" value="&lt;font style=&quot;font-size: 11px;&quot;&gt;MAC_OUT&lt;/font&gt;&lt;div&gt;&lt;font style=&quot;&quot;&gt;&lt;font size=&quot;3&quot;&gt;=&lt;/font&gt;&lt;br&gt;&lt;/font&gt;&lt;div&gt;&lt;div&gt;&lt;font style=&quot;&quot;&gt;&lt;font style=&quot;font-size: 11px;&quot;&gt;MAC_ACC[27:12]&lt;/font&gt;&amp;nbsp;&lt;/font&gt;&lt;/div&gt;&lt;/div&gt;&lt;/div&gt;" style="rounded=0;whiteSpace=wrap;html=1;" vertex="1" parent="1">
          <mxGeometry x="570" y="940" width="90" height="50" as="geometry" />
        </mxCell>
        <mxCell id="Qrr7-VOG2FT9avnJHbCs-7" value="&lt;font style=&quot;font-size: 11px;&quot;&gt;MAC_OUT&lt;/font&gt;&lt;div&gt;&lt;font style=&quot;&quot;&gt;&lt;font size=&quot;3&quot;&gt;=&lt;/font&gt;&lt;br&gt;&lt;/font&gt;&lt;div&gt;&lt;div&gt;&lt;font style=&quot;&quot;&gt;&lt;font style=&quot;font-size: 11px;&quot;&gt;MAC_ACC[26:11]&lt;/font&gt;&amp;nbsp;&lt;/font&gt;&lt;/div&gt;&lt;/div&gt;&lt;/div&gt;" style="rounded=0;whiteSpace=wrap;html=1;" vertex="1" parent="1">
          <mxGeometry x="670" y="940" width="90" height="50" as="geometry" />
        </mxCell>
        <mxCell id="Qrr7-VOG2FT9avnJHbCs-8" value="&lt;font style=&quot;font-size: 11px;&quot;&gt;MAC_OUT&lt;/font&gt;&lt;div&gt;&lt;font style=&quot;&quot;&gt;&lt;font size=&quot;3&quot;&gt;=&lt;/font&gt;&lt;br&gt;&lt;/font&gt;&lt;div&gt;&lt;div&gt;&lt;font style=&quot;&quot;&gt;&lt;font style=&quot;font-size: 11px;&quot;&gt;MAC_ACC[25:10]&lt;/font&gt;&amp;nbsp;&lt;/font&gt;&lt;/div&gt;&lt;/div&gt;&lt;/div&gt;" style="rounded=0;whiteSpace=wrap;html=1;" vertex="1" parent="1">
          <mxGeometry x="770" y="940" width="90" height="50" as="geometry" />
        </mxCell>
        <mxCell id="Qrr7-VOG2FT9avnJHbCs-22" value="" style="endArrow=none;html=1;rounded=0;entryX=0.5;entryY=1;entryDx=0;entryDy=0;" edge="1" parent="1" target="Qrr7-VOG2FT9avnJHbCs-7">
          <mxGeometry width="50" height="50" relative="1" as="geometry">
            <mxPoint x="715" y="1020" as="sourcePoint" />
            <mxPoint x="675" y="1040" as="targetPoint" />
          </mxGeometry>
        </mxCell>
        <mxCell id="Qrr7-VOG2FT9avnJHbCs-23" value="" style="endArrow=none;html=1;rounded=0;entryX=0.5;entryY=1;entryDx=0;entryDy=0;" edge="1" parent="1">
          <mxGeometry width="50" height="50" relative="1" as="geometry">
            <mxPoint x="314.64" y="1020" as="sourcePoint" />
            <mxPoint x="314.64" y="990" as="targetPoint" />
          </mxGeometry>
        </mxCell>
        <mxCell id="Qrr7-VOG2FT9avnJHbCs-24" value="" style="endArrow=none;html=1;rounded=0;entryX=0.5;entryY=1;entryDx=0;entryDy=0;" edge="1" parent="1">
          <mxGeometry width="50" height="50" relative="1" as="geometry">
            <mxPoint x="416.39" y="1020" as="sourcePoint" />
            <mxPoint x="416.39" y="990" as="targetPoint" />
          </mxGeometry>
        </mxCell>
        <mxCell id="Qrr7-VOG2FT9avnJHbCs-25" value="" style="endArrow=none;html=1;rounded=0;entryX=0.5;entryY=1;entryDx=0;entryDy=0;" edge="1" parent="1">
          <mxGeometry width="50" height="50" relative="1" as="geometry">
            <mxPoint x="915" y="1020" as="sourcePoint" />
            <mxPoint x="915" y="990" as="targetPoint" />
            <Array as="points">
              <mxPoint x="915" y="1010" />
            </Array>
          </mxGeometry>
        </mxCell>
        <mxCell id="Qrr7-VOG2FT9avnJHbCs-26" value="" style="endArrow=none;html=1;rounded=0;entryX=0.5;entryY=1;entryDx=0;entryDy=0;" edge="1" parent="1">
          <mxGeometry width="50" height="50" relative="1" as="geometry">
            <mxPoint x="814.64" y="1020" as="sourcePoint" />
            <mxPoint x="814.64" y="990" as="targetPoint" />
            <Array as="points">
              <mxPoint x="814.64" y="1000" />
            </Array>
          </mxGeometry>
        </mxCell>
        <mxCell id="Qrr7-VOG2FT9avnJHbCs-27" value="" style="endArrow=none;html=1;rounded=0;entryX=0.5;entryY=1;entryDx=0;entryDy=0;" edge="1" parent="1">
          <mxGeometry width="50" height="50" relative="1" as="geometry">
            <mxPoint x="214.64" y="1020" as="sourcePoint" />
            <mxPoint x="214.64" y="990" as="targetPoint" />
          </mxGeometry>
        </mxCell>
        <mxCell id="Qrr7-VOG2FT9avnJHbCs-28" value="" style="endArrow=none;html=1;rounded=0;" edge="1" parent="1">
          <mxGeometry width="50" height="50" relative="1" as="geometry">
            <mxPoint x="215" y="1020" as="sourcePoint" />
            <mxPoint x="515" y="1020" as="targetPoint" />
          </mxGeometry>
        </mxCell>
        <mxCell id="Qrr7-VOG2FT9avnJHbCs-29" value="" style="endArrow=none;html=1;rounded=0;" edge="1" parent="1">
          <mxGeometry width="50" height="50" relative="1" as="geometry">
            <mxPoint x="615" y="1020" as="sourcePoint" />
            <mxPoint x="915" y="1020" as="targetPoint" />
          </mxGeometry>
        </mxCell>
        <mxCell id="Qrr7-VOG2FT9avnJHbCs-31" value="" style="endArrow=none;html=1;rounded=0;exitX=0;exitY=0.5;exitDx=0;exitDy=0;" edge="1" parent="1" source="XqxvmUvMj2cJ1wYKaSK2-77">
          <mxGeometry width="50" height="50" relative="1" as="geometry">
            <mxPoint x="570" y="360" as="sourcePoint" />
            <mxPoint x="360" y="330" as="targetPoint" />
          </mxGeometry>
        </mxCell>
        <mxCell id="Qrr7-VOG2FT9avnJHbCs-32" value="" style="endArrow=none;html=1;rounded=0;" edge="1" parent="1">
          <mxGeometry width="50" height="50" relative="1" as="geometry">
            <mxPoint x="360" y="330" as="sourcePoint" />
            <mxPoint x="360" y="290" as="targetPoint" />
          </mxGeometry>
        </mxCell>
        <mxCell id="Qrr7-VOG2FT9avnJHbCs-33" value="" style="endArrow=classic;html=1;rounded=0;" edge="1" parent="1">
          <mxGeometry width="50" height="50" relative="1" as="geometry">
            <mxPoint x="360" y="290" as="sourcePoint" />
            <mxPoint x="460" y="290" as="targetPoint" />
          </mxGeometry>
        </mxCell>
        <mxCell id="Qrr7-VOG2FT9avnJHbCs-34" value="" style="endArrow=none;html=1;rounded=0;entryX=0;entryY=0.5;entryDx=0;entryDy=0;" edge="1" parent="1" target="XqxvmUvMj2cJ1wYKaSK2-80">
          <mxGeometry width="50" height="50" relative="1" as="geometry">
            <mxPoint x="760" y="290" as="sourcePoint" />
            <mxPoint x="620" y="340" as="targetPoint" />
          </mxGeometry>
        </mxCell>
        <mxCell id="Qrr7-VOG2FT9avnJHbCs-35" value="" style="endArrow=none;html=1;rounded=0;" edge="1" parent="1">
          <mxGeometry width="50" height="50" relative="1" as="geometry">
            <mxPoint x="760" y="250" as="sourcePoint" />
            <mxPoint x="760" y="290" as="targetPoint" />
          </mxGeometry>
        </mxCell>
        <mxCell id="Qrr7-VOG2FT9avnJHbCs-36" value="" style="endArrow=classic;html=1;rounded=0;" edge="1" parent="1">
          <mxGeometry width="50" height="50" relative="1" as="geometry">
            <mxPoint x="760" y="250" as="sourcePoint" />
            <mxPoint x="810" y="250" as="targetPoint" />
          </mxGeometry>
        </mxCell>
        <mxCell id="Qrr7-VOG2FT9avnJHbCs-39" value="" style="edgeStyle=orthogonalEdgeStyle;rounded=0;orthogonalLoop=1;jettySize=auto;html=1;" edge="1" parent="1" source="Qrr7-VOG2FT9avnJHbCs-38" target="XqxvmUvMj2cJ1wYKaSK2-105">
          <mxGeometry relative="1" as="geometry" />
        </mxCell>
        <mxCell id="Qrr7-VOG2FT9avnJHbCs-38" value="&lt;font style=&quot;font-size: 11px;&quot;&gt;MAC_CTRL[1] = 0&lt;/font&gt;" style="rounded=0;whiteSpace=wrap;html=1;" vertex="1" parent="1">
          <mxGeometry x="514.25" y="680" width="101.5" height="40" as="geometry" />
        </mxCell>
      </root>
    </mxGraphModel>
  </diagram>
</mxfile>
